<?xml version="1.0" encoding="UTF-8"?>
<!-- Generator: Adobe Illustrator 19.2.1, SVG Export Plug-In . SVG Version: 6.00 Build 0)  -->
<svg version="1.1" id="Layer_1" xmlns="http://www.w3.org/2000/svg" xmlns:xlink="http://www.w3.org/1999/xlink" x="0px" y="0px" viewBox="0 0 1260.2 618.4" style="enable-background:new 0 0 1260.2 618.4;" xml:space="preserve">
<style type="text/css">
	.st0{clip-path:url(#SVGID_2_);fill:#1F475B;}
	.st1{clip-path:url(#SVGID_2_);}
	.st2{fill:#99D8E7;}
	.st3{fill:#2BAEBA;}
	.st4{fill:#F16427;}
	.st5{fill:#1A3B4F;}
</style>
<g>
	<defs>
		<rect id="SVGID_1_" width="1260.2" height="618.4"/>
	</defs>
	<clipPath id="SVGID_2_">
		<use xlink:href="#SVGID_1_" style="overflow:visible;"/>
	</clipPath>
	<polygon class="st0" points="-153.6,-109 -153.6,-109 -202.6,-109 -202.6,618.5 -153.6,618.5 -131,618.5 364,618.5 549.9,618.5    925.9,618.5 1744.7,-109  "/>
	<g class="st1">
		<polygon class="st2" points="606,618.4 604.8,621 914.8,621 813.2,399.3   "/>
		<polygon class="st3" points="606,618.4 813.2,399.3 759.8,282.7   "/>
		<g>
			<polygon class="st3" points="676.5,-109 1009.8,618.5 1743.7,618.5 1743.7,-109    "/>
			<polygon class="st4" points="877.8,330.9 807.8,177.9 759.8,282.7 813.2,399.3 914.8,621 998.5,621 1011.8,621    "/>
		</g>
		<polygon class="st5" points="779,115.1 731,219.8 547.2,621 604,621 605.6,619.3 759.8,282.7 807.8,177.9   "/>
	</g>
</g>
</svg>